<svg width="696" height="712" viewBox="0 0 522 534" xmlns="http://www.w3.org/2000/svg" xmlns:xlink="http://www.w3.org/1999/xlink">
<g id="graph0" class="graph" transform="translate(14.984315456107108,529.3676995340462) scale(1.158075116488454)">
<title>G</title>
<polygon fill="white" stroke="transparent" points="-4,4 -4,-457.11 428.87,-457.11 428.87,4 -4,4"/>
<!-- 0 -->
<!-- w1&#45;&gt;w2 -->
<g id="edge12" class="edge">
<title>w1-&gt;w4</title>
<path fill="none" stroke="blue" d="M96.69,-305.18C112.68,-313.47 136.33,-323.59 156.07,-330.75"/>
<polygon fill="blue" stroke="blue" points="155.09,-334.12 165.69,-334.1 157.4,-327.51 155.09,-334.12"/>
</g>
<!-- w3 -->
<g id="node3" class="node">
<title>w3</title>
<ellipse fill="none" stroke="black" cx="352.31" cy="-178.43" rx="27" ry="18"/>
<text text-anchor="middle" x="352.31" y="-174.23" font-family="Times,serif" font-size="14.00">w</text>
</g>
<!-- w2&#45;&gt;w3 -->
<g id="edge3" class="edge">
<title>w1-&gt;yellowbotw1</title>
<path fill="none" stroke="orange" d="M73.01,-309.64C67.95,-326.21 60.66,-350.06 57.12,-361.66"/>
<polygon fill="orange" stroke="orange" points="60.71,-367.01 51.15,-364.09 51.73,-362.17 61.3,-365.09 60.71,-367.01"/>
<polyline fill="none" stroke="orange" points="55.64,-366.5 57.1,-361.72 "/>
</g>
<!-- f -->
<g id="node1" class="node">
<title>w1</title>
<ellipse fill="none" stroke="black" cx="78.45" cy="-291.87" rx="27" ry="18"/>
<text text-anchor="middle" x="78.45" y="-287.67" font-family="Times,serif" font-size="14.00">w</text>
</g>
<!-- f&#45;&gt;f -->
<g id="node2" class="node">
<title>w2</title>
<ellipse fill="none" stroke="black" cx="31.45999999999998" cy="-178.43" rx="27" ry="18"/>
<text text-anchor="middle" x="31.45999999999998" y="-174.23" font-family="Times,serif" font-size="14.00">w</text>
</g>
<g id="node13" class="node">
<title>greenbotw1</title>
<ellipse fill="white" stroke="white" cx="1.7999999999999972" cy="-315.29" rx="1.8" ry="1.8"/>
</g>
<!-- w3&#45;&gt;f -->
<g id="edge21" class="edge">
<title>w1-&gt;greenbotw1</title>
<path fill="none" stroke="green" d="M53.77,-299.41C38.12,-304.19 18.97,-310.04 8.85,-313.13"/>
<polygon fill="green" stroke="green" points="6.24,-319.16 3.32,-309.59 5.23,-309.01 8.16,-318.57 6.24,-319.16"/>
<polyline fill="none" stroke="green" points="3.8299999999999983,-314.67 8.61,-313.21 "/>
</g>
<!-- w -->
<g id="node4" class="node">
<title>w4</title>
<ellipse fill="none" stroke="black" cx="191.89" cy="-338.86" rx="27" ry="18"/>
<text text-anchor="middle" x="191.89" y="-334.66" font-family="Times,serif" font-size="14.00">w</text>
</g>
<!-- w&#45;&gt;w1 -->
<g id="node5" class="node">
<title>w5</title>
<ellipse fill="none" stroke="black" cx="78.44999999999999" cy="-64.99" rx="27" ry="18"/>
<text text-anchor="middle" x="78.44999999999999" y="-60.79" font-family="Times,serif" font-size="14.00">w</text>
</g><g id="edge22" class="edge">
<title>w2-&gt;w2</title>
<path fill="none" stroke="green" d="M56.9,-185.12C67.48,-185.58 76.46,-183.35 76.46,-178.43 76.46,-175.2 72.59,-173.13 66.94,-172.22"/>
<polygon fill="green" stroke="green" points="67.06,-168.72 56.9,-171.74 66.72,-175.71 67.06,-168.72"/>
</g>
<!-- f&#45;&gt;f -->
<g id="node6" class="node">
<title>f1</title>
<ellipse fill="none" stroke="black" cx="305.32" cy="-64.99" rx="27" ry="18"/>
<text text-anchor="middle" x="305.32" y="-60.78999999999999" font-family="Times,serif" font-size="14.00">f</text>
</g>

<!-- w5&#45;&gt;f3 -->
<g id="edge7" class="edge">
<title>w5-&gt;f3</title>
<path fill="none" stroke="orange" d="M101.4,-55.48C118.05,-48.58 140.8,-39.16 159.33,-31.49"/>
<polygon fill="orange" stroke="orange" points="160.67,-34.72 168.57,-27.66 158,-28.25 160.67,-34.72"/>
</g>
<!-- f1&#45;&gt;w3 -->
<g id="edge1" class="edge">
<title>f1-&gt;w3</title>
<path fill="none" stroke="orange" d="M312.67,-82.71C320.29,-101.11 332.3,-130.12 341.11,-151.38"/>
<polygon fill="orange" stroke="orange" points="337.96,-152.93 345.02,-160.83 344.43,-150.25 337.96,-152.93"/>
</g>
<!-- f1&#45;&gt;f1 -->
<g id="edge19" class="edge">
<title>f1-&gt;f1</title>
<path fill="none" stroke="green" d="M330.77,-71.68C341.35,-72.14 350.32,-69.91 350.32,-64.99 350.32,-61.76 346.46,-59.69 340.81,-58.78"/>
<polygon fill="green" stroke="green" points="340.92,-55.28 330.77,-58.3 340.59,-62.27 340.92,-55.28"/>
</g>
<!-- f2 -->
<g id="node7" class="node">
<title>f2</title>
<ellipse fill="none" stroke="black" cx="305.32" cy="-291.87" rx="27" ry="18"/>
<text text-anchor="middle" x="305.32" y="-287.67" font-family="Times,serif" font-size="14.00">f</text>
</g>
<!-- w4&#45;&gt;bluebotw4 -->
<g id="edge15" class="edge">
<title>w4-&gt;bluebotw4</title>
<path fill="none" stroke="blue" d="M203.33,-355.62C217.49,-376.36 240.87,-410.62 250.22,-424.32"/>
<polygon fill="blue" stroke="blue" points="256.71,-424.96 248.45,-430.6 247.33,-428.95 255.59,-423.31 256.71,-424.96"/>
<polyline fill="none" stroke="blue" points="253.15,-428.6 250.33,-424.48 "/>
</g>
<!-- w5&#45;&gt;w2 -->
<g id="edge16" class="edge">
<title>w5-&gt;w2</title>
<path fill="none" stroke="blue" d="M66.17,-81.26C56.58,-99.33 44.16,-128.76 36.78,-150.52"/>
<polygon fill="blue" stroke="blue" points="33.4,-149.62 33.69,-160.21 40.07,-151.75 33.4,-149.62"/>
</g>
<!-- w5&#45;&gt;w3 -->
<g id="edge25" class="edge">
<title>w5-&gt;w3</title>
<path fill="none" stroke="green" d="M101.8,-74.66C150.61,-94.88 263.54,-141.66 319.57,-164.87"/>
<polygon fill="green" stroke="green" points="318.44,-168.19 329.02,-168.78 321.12,-161.72 318.44,-168.19"/>
</g>
<!-- f3 -->
<g id="node8" class="node">
<title>f3</title>
<ellipse fill="none" stroke="black" cx="191.89" cy="-18" rx="27" ry="18"/>
<text text-anchor="middle" x="191.89" y="-13.8" font-family="Times,serif" font-size="14.00">f</text>
</g><!-- f4 -->
<!-- f4 -->
<!-- f4 -->
<!-- f4 -->

<!-- f1&#45;&gt;f2 -->
<g id="edge10" class="edge">
<title>f1-&gt;f2</title>
<path fill="none" stroke="blue" d="M305.32,-83.17C305.32,-122.58 305.32,-216.13 305.32,-263.43"/>
<polygon fill="blue" stroke="blue" points="301.82,-263.6 305.32,-273.6 308.82,-263.6 301.82,-263.6"/>
</g>
<!-- f2&#45;&gt;w1 -->
<g id="edge2" class="edge">
<title>f2-&gt;w1</title>
<path fill="none" stroke="orange" d="M277.96,-291.87C237.39,-291.87 161.2,-291.87 115.62,-291.87"/>
<polygon fill="orange" stroke="orange" points="115.56,-288.37 105.56,-291.87 115.56,-295.37 115.56,-288.37"/>
</g>
<!-- f2&#45;&gt;w3 -->
<g id="edge11" class="edge">
<title>f2-&gt;w3</title>
<path fill="none" stroke="blue" d="M312.67,-274.14C320.29,-255.75 332.3,-226.74 341.11,-205.48"/>
<polygon fill="blue" stroke="blue" points="344.43,-206.61 345.02,-196.03 337.96,-203.93 344.43,-206.61"/>
</g>
<!-- f2&#45;&gt;f2 -->
<g id="edge20" class="edge">
<title>f2-&gt;f2</title>
<path fill="none" stroke="green" d="M330.77,-298.56C341.35,-299.02 350.32,-296.79 350.32,-291.87 350.32,-288.64 346.46,-286.57 340.81,-285.66"/>
<polygon fill="green" stroke="green" points="340.92,-282.16 330.77,-285.18 340.59,-289.15 340.92,-282.16"/>
</g>
<!-- f3&#45;&gt;w3 -->
<g id="edge8" class="edge">
<title>f3-&gt;w3</title>
<path fill="none" stroke="orange" d="M202.75,-34.49C227.85,-64.33 289.79,-126.71 325.66,-158.72"/>
<polygon fill="orange" stroke="orange" points="323.49,-161.48 333.32,-165.44 328.1,-156.22 323.49,-161.48"/>
</g>
<!-- f3&#45;&gt;w3 -->
<g id="edge17" class="edge">
<title>f3-&gt;w3</title>
<path fill="none" stroke="blue" d="M210.85,-30.97C242.14,-57.79 303.78,-119.18 334.38,-153.76"/>
<polygon fill="blue" stroke="blue" points="331.91,-156.26 341.11,-161.53 337.2,-151.68 331.91,-156.26"/>
</g>
<!-- f3&#45;&gt;f3 -->
<g id="edge26" class="edge">
<title>f3-&gt;f3</title>
<path fill="none" stroke="green" d="M217.33,-24.69C227.91,-25.15 236.89,-22.92 236.89,-18 236.89,-14.77 233.02,-12.7 227.37,-11.79"/>
<polygon fill="green" stroke="green" points="227.48,-8.29 217.33,-11.31 227.15,-15.28 227.48,-8.29"/>
</g>
<!-- f4 -->
<g id="node9" class="node">
<title>f4</title>
<ellipse fill="none" stroke="black" cx="154.22" cy="-435.11" rx="27" ry="18"/>
<text text-anchor="middle" x="154.22" y="-430.91" font-family="Times,serif" font-size="14.00">f</text>
</g><g id="edge4" class="edge">
<title>w2-&gt;w5</title>
<path fill="none" stroke="orange" d="M43.73,-162.16C53.32,-144.09 65.74,-114.65 73.12,-92.89"/>
<polygon fill="orange" stroke="orange" points="76.5,-93.8 76.21,-83.21 69.84,-91.67 76.5,-93.8"/>
</g>

<g id="edge13" class="edge">
<title>w2-&gt;f1</title>
<path fill="none" stroke="blue" d="M54.81,-168.76C103.62,-148.54 216.55,-101.76 272.58,-78.55"/>
<polygon fill="blue" stroke="blue" points="274.13,-81.7 282.03,-74.64 271.46,-75.23 274.13,-81.7"/>
</g>

<!-- w3&#45;&gt;w4 -->
<g id="edge5" class="edge">
<title>w3-&gt;w4</title>
<path fill="none" stroke="orange" d="M337.22,-193.52C308.91,-221.83 247.72,-283.02 214.48,-316.26"/>
<polygon fill="orange" stroke="orange" points="211.65,-314.14 207.05,-323.69 216.6,-319.09 211.65,-314.14"/>
</g>
<!-- bluebotw3 -->
<g id="node11" class="node">
<title>bluebotw3</title>
<ellipse fill="white" stroke="white" cx="423.07" cy="-140.79" rx="1.8" ry="1.8"/>
</g>
<!-- w3&#45;&gt;greenbotw3 -->
<g id="edge23" class="edge">
<title>w3-&gt;greenbotw3</title>
<path fill="none" stroke="green" d="M373.54,-189.72C388.37,-197.61 407.18,-207.61 416.79,-212.72"/>
<polygon fill="green" stroke="green" points="422.93,-210.33 418.24,-219.16 416.47,-218.22 421.17,-209.39 422.93,-210.33"/>
<polyline fill="none" stroke="green" points="421.47,-215.21 417.06,-212.87 "/>
</g>
<!-- w4&#45;&gt;w1 -->
<g id="edge6" class="edge">
<title>w4-&gt;w1</title>
<path fill="none" stroke="orange" d="M173.64,-325.54C157.65,-317.26 134,-307.13 114.26,-299.97"/>
<polygon fill="orange" stroke="orange" points="115.24,-296.61 104.64,-296.62 112.93,-303.22 115.24,-296.61"/>
</g>
<!-- w4&#45;&gt;w4 -->
<g id="edge24" class="edge">
<title>w4-&gt;w4</title>
<path fill="none" stroke="green" d="M217.33,-345.55C227.91,-346.01 236.89,-343.78 236.89,-338.86 236.89,-335.63 233.02,-333.56 227.37,-332.64"/>
<polygon fill="green" stroke="green" points="227.48,-329.15 217.33,-332.17 227.15,-336.14 227.48,-329.15"/>
</g>
<!-- bluebotw4 -->
<g id="node12" class="node">
<title>bluebotw4</title>
<ellipse fill="white" stroke="white" cx="254.27" cy="-430.24" rx="1.8" ry="1.8"/>
</g><g id="node10" class="node">
<title>yellowbotw1</title>
<ellipse fill="white" stroke="white" cx="55.03" cy="-368.51" rx="1.8" ry="1.8"/>
</g>
<!-- w3&#45;&gt;bluebotw3 -->
<g id="edge14" class="edge">
<title>w3-&gt;bluebotw3</title>
<path fill="none" stroke="blue" d="M373.54,-167.14C388.37,-159.25 407.18,-149.24 416.79,-144.13"/>
<polygon fill="blue" stroke="blue" points="418.24,-137.7 422.93,-146.53 421.17,-147.47 416.47,-138.64 418.24,-137.7"/>
<polyline fill="none" stroke="blue" points="421.47,-141.64 417.06,-143.99 "/>
</g>
<!-- greenbotw3 -->
<g id="node14" class="node">
<title>greenbotw3</title>
<ellipse fill="white" stroke="white" cx="423.07" cy="-216.06" rx="1.8" ry="1.8"/>
</g>
<!-- f4&#45;&gt;w4 -->
<g id="edge18" class="edge">
<title>f4-&gt;w4</title>
<path fill="none" stroke="blue" d="M161.13,-417.45C166.76,-403.07 174.8,-382.52 181.25,-366.04"/>
<polygon fill="blue" stroke="blue" points="184.64,-366.99 185.02,-356.4 178.12,-364.44 184.64,-366.99"/>
</g>
<!-- f4&#45;&gt;f4 -->
<g id="edge9" class="edge">
<title>f4-&gt;f4</title>
<path fill="none" stroke="orange" d="M181.01,-438.47C191,-438.59 199.22,-437.46 199.22,-435.11 199.22,-433.64 196.01,-432.64 191.16,-432.14"/>
<polygon fill="orange" stroke="orange" points="191.14,-428.63 181.01,-431.74 190.87,-435.63 191.14,-428.63"/>
</g>
<!-- f4&#45;&gt;f4 -->
<g id="edge27" class="edge">
<title>f4-&gt;f4</title>
<path fill="none" stroke="green" d="M179.78,-441.1C198.48,-443.12 217.22,-441.12 217.22,-435.11 217.22,-430.18 204.61,-427.95 189.75,-428.42"/>
<polygon fill="green" stroke="green" points="189.51,-424.93 179.78,-429.12 190,-431.91 189.51,-424.93"/>
</g>
</g>
</svg>