<svg width="696" height="712" viewBox="0 0 190.85 184" xmlns="http://www.w3.org/2000/svg" xmlns:xlink="http://www.w3.org/1999/xlink">
<g id="graph0" class="graph" transform="translate(4,180) scale(1)">
<title>G</title>
<polygon fill="white" stroke="transparent" points="-4,4 -4,-180 186.85,-180 186.85,4 -4,4"/>
<!-- 0 -->
<!-- w1&#45;&gt;w2 -->
<g id="edge2" class="edge">
<title>w1-&gt;w2</title>
<path fill="none" stroke="orange" d="M29.25,-98.51C29.17,-97.58 29.09,-96.63 29.01,-95.67"/>
<polygon fill="orange" stroke="orange" points="32.47,-95.05 28.14,-85.38 25.5,-95.64 32.47,-95.05"/>
</g>
<!-- w3 -->
<!-- w3 -->
<g id="node3" class="node">
<title>w3</title>
<ellipse fill="none" stroke="black" cx="93.39" cy="-18.5" rx="27" ry="18"/>
<text text-anchor="middle" x="93.39" y="-14.3" font-family="Times,serif" font-size="14.00">w</text>
</g>
<!-- w2&#45;&gt;w3 -->
<g id="edge7" class="edge">
<title>w1-&gt;f</title>
<path fill="none" stroke="green" d="M56.06,-110.21C64.99,-107.96 75.21,-105.39 84.8,-102.97"/>
<polygon fill="green" stroke="green" points="85.66,-106.36 94.5,-100.52 83.95,-99.57 85.66,-106.36"/>
</g>
<g id="node1" class="node">
<title>w1</title>
<ellipse fill="none" stroke="black" cx="30.77" cy="-116.58" rx="27" ry="18"/>
<text text-anchor="middle" x="30.77" y="-112.38" font-family="Times,serif" font-size="14.00">w</text>
</g>
<!-- f&#45;&gt;f -->
<g id="node2" class="node">
<title>w2</title>
<ellipse fill="none" stroke="black" cx="26.620000000000005" cy="-67.32" rx="27" ry="18"/>
<text text-anchor="middle" x="26.620000000000005" y="-63.12" font-family="Times,serif" font-size="14.00">w</text>
</g>
<g id="node5" class="node">
<title>f</title>
<ellipse fill="none" stroke="black" cx="119.85" cy="-94.14" rx="27" ry="18"/>
<text text-anchor="middle" x="119.85" y="-89.94" font-family="Times,serif" font-size="14.00">f</text>
</g>
<!-- w2&#45;&gt;w3 -->
<g id="edge3" class="edge">
<title>w2-&gt;w3</title>
<path fill="none" stroke="orange" d="M44.87,-53.98C51.64,-49.03 59.46,-43.3 66.83,-37.92"/>
<polygon fill="orange" stroke="orange" points="69.16,-40.55 75.17,-31.82 65.03,-34.9 69.16,-40.55"/>
</g>
<!-- w2&#45;&gt;f -->
<g id="edge8" class="edge">
<title>w2-&gt;f</title>
<path fill="none" stroke="green" d="M51.61,-74.5C61.85,-77.45 73.88,-80.91 84.96,-84.1"/>
<polygon fill="green" stroke="green" points="84.22,-87.53 94.8,-86.93 86.16,-80.8 84.22,-87.53"/>
</g>
<!-- w3&#45;&gt;f -->
<g id="edge4" class="edge">
<title>w3-&gt;f</title>
<path fill="none" stroke="orange" d="M93.77,-36.79C96,-46.28 99.8,-58.02 103.92,-68.41"/>
<polygon fill="orange" stroke="orange" points="100.8,-70 107.93,-77.84 107.24,-67.27 100.8,-70"/>
</g>
<!-- w3&#45;&gt;f -->
<g id="edge9" class="edge">
<title>w3-&gt;f</title>
<path fill="none" stroke="green" d="M105.34,-34.87C109.54,-44.04 113.81,-55.7 116.92,-66.26"/>
<polygon fill="green" stroke="green" points="113.53,-67.16 119.49,-75.93 120.3,-65.36 113.53,-67.16"/>
</g>
<!-- w -->
<g id="node4" class="node">
<title>w</title>
<ellipse fill="none" stroke="black" cx="94.84" cy="-158.19" rx="27" ry="18"/>
<text text-anchor="middle" x="94.84" y="-153.99" font-family="Times,serif" font-size="14.00">w</text>
</g>
<!-- w&#45;&gt;w1 -->
<g id="edge1" class="edge">
<title>w-&gt;w1</title>
<path fill="none" stroke="orange" d="M75.27,-145.48C70.05,-142.09 64.31,-138.36 58.74,-134.74"/>
<polygon fill="orange" stroke="orange" points="60.52,-131.72 50.22,-129.21 56.7,-137.59 60.52,-131.72"/>
</g>
<!-- w&#45;&gt;f -->
<g id="edge6" class="edge">
<title>w-&gt;f</title>
<path fill="none" stroke="green" d="M101.67,-140.69C104.04,-134.61 106.76,-127.66 109.36,-121.01"/>
<polygon fill="green" stroke="green" points="112.65,-122.21 113.02,-111.62 106.13,-119.66 112.65,-122.21"/>
</g>
<!-- f&#45;&gt;f -->
<!-- f&#45;&gt;f -->
<g id="edge5" class="edge">
<title>f-&gt;f</title>
<path fill="none" stroke="orange" d="M146.64,-97.51C156.63,-97.62 164.85,-96.49 164.85,-94.14 164.85,-92.67 161.64,-91.68 156.79,-91.17"/>
<polygon fill="orange" stroke="orange" points="156.77,-87.66 146.64,-90.77 156.5,-94.66 156.77,-87.66"/>
</g>
<g id="edge10" class="edge">
<title>f-&gt;f</title>
<path fill="none" stroke="green" d="M145.41,-100.13C164.11,-102.15 182.85,-100.15 182.85,-94.14 182.85,-89.21 170.24,-86.98 155.38,-87.45"/>
<polygon fill="green" stroke="green" points="155.14,-83.96 145.41,-88.15 155.63,-90.94 155.14,-83.96"/>
</g>
</g>
</svg>