<svg width="696" height="712" xmlns="http://www.w3.org/2000/svg" xmlns:xlink="http://www.w3.org/1999/xlink" viewBox="0.00 0.00 371.6 65.8">
<g id="graph0" class="graph" transform="translate(4,61.799998321533224) scale(1)">
<title>G</title>
<polygon fill="white" stroke="transparent" points="-4,4 -4,-61.8 367.6,-61.8 367.6,4 -4,4"/>
<!-- w1 -->
<g id="node1" class="node">
<title>w1</title>
<ellipse fill="none" stroke="black" cx="117" cy="-39.8" rx="27" ry="18"/>
<text text-anchor="middle" x="117" y="-35.6" font-family="Times,serif" font-size="14.00">w</text>
</g>
<!-- w2 -->
<g id="node2" class="node">
<title>w2</title>
<ellipse fill="none" stroke="black" cx="207" cy="-39.8" rx="27" ry="18"/>
<text text-anchor="middle" x="207" y="-35.6" font-family="Times,serif" font-size="14.00">w</text>
</g>
<!-- w1&#45;&gt;w2 -->
<g id="edge2" class="edge">
<title>w1-&gt;w2</title>
<path fill="none" stroke="orange" d="M144.4,-39.8C152.39,-39.8 161.31,-39.8 169.82,-39.8"/>
<polygon fill="orange" stroke="orange" points="169.92,-43.3 179.92,-39.8 169.92,-36.3 169.92,-43.3"/>
</g>
<!-- fix -->

<!-- w1&#45;&gt;fix -->

<!-- bot2 -->
<g id="node5" class="node">
<title>bot2</title>
<ellipse fill="white" stroke="white" cx="207" cy="-1.7999999999999972" rx="1.8" ry="1.8"/>
</g>
<!-- w1&#45;&gt;bot2 -->
<g id="edge6" class="edge">
<title>w1-&gt;bot2</title>
<path fill="none" stroke="rgb(0, 128, 0)" d="M140.07,-30.12C151.9,-24.95 166.73,-18.5 180,-12.8 186.99,-9.8 195.07,-6.39 200.34,-4.18"/>
<polygon fill="green" stroke="green" points="202.15,2.01 206.02,-7.21 204.18,-7.99 200.31,1.23 202.15,2.01"/>
<polyline fill="none" stroke="rgb(0, 128, 0)" points="205.01,-2.219999999999999 200.4,-4.149999999999999 "/>
</g>
<!-- w3 -->
<g id="node3" class="node">
<title>w3</title>
<ellipse fill="none" stroke="black" cx="297" cy="-39.8" rx="27" ry="18"/>
<text text-anchor="middle" x="297" y="-35.6" font-family="Times,serif" font-size="14.00">w</text>
</g>
<!-- w2&#45;&gt;w3 -->
<g id="edge3" class="edge">
<title>w2-&gt;w3</title>
<path fill="none" stroke="orange" d="M234.4,-39.8C242.39,-39.8 251.31,-39.8 259.82,-39.8"/>
<polygon fill="orange" stroke="orange" points="259.92,-43.3 269.92,-39.8 259.92,-36.3 259.92,-43.3"/>
</g>
<!-- w2&#45;&gt;fix -->

<!-- bot3 -->
<g id="node6" class="node">
<title>bot3</title>
<ellipse fill="white" stroke="white" cx="297" cy="-1.7999999999999972" rx="1.8" ry="1.8"/>
</g><g id="edge4" class="edge">
<title>w3-&gt;bot1</title>
<path fill="none" stroke="rgb(255, 165, 0)" d="M324.27,-39.8C335.56,-39.8 347.77,-39.8 354.82,-39.8"/>
<polygon fill="orange" stroke="orange" points="358.94,-34.8 358.94,-44.8 356.94,-44.8 356.94,-34.8 358.94,-34.8"/>
<polyline fill="none" stroke="rgb(255, 165, 0)" points="359.94,-39.8 354.94,-39.8 "/>
</g>
<!-- w2&#45;&gt;bot3 -->
<g id="edge7" class="edge">
<title>w2-&gt;bot3</title>
<path fill="none" stroke="rgb(0, 128, 0)" d="M230.07,-30.12C241.9,-24.95 256.73,-18.5 270,-12.8 276.99,-9.8 285.07,-6.39 290.34,-4.18"/>
<polygon fill="green" stroke="green" points="292.15,2.01 296.02,-7.21 294.18,-7.99 290.31,1.23 292.15,2.01"/>
<polyline fill="none" stroke="rgb(0, 128, 0)" points="295.01,-2.219999999999999 290.4,-4.149999999999999 "/>
</g>
<!-- w3&#45;&gt;fix -->

<!-- inv -->
<g id="node8" class="node">
<title>bot5</title>
<ellipse fill="white" stroke="white" cx="117" cy="-1.7999999999999972" rx="1.8" ry="1.8"/>
</g>
<!-- w3&#45;&gt;inv -->

<g id="node7" class="node">
<title>bot4</title>
<ellipse fill="white" stroke="white" cx="361.8" cy="-17.799999999999997" rx="1.8" ry="1.8"/>
</g><g id="edge8" class="edge">
<title>w3-&gt;bot4</title>
<path fill="none" stroke="rgb(0, 128, 0)" d="M321.38,-31.61C333.35,-27.42 346.97,-22.64 354.66,-19.95"/>
<polygon fill="green" stroke="green" points="357.24,-13.75 360.55,-23.19 358.66,-23.85 355.35,-14.41 357.24,-13.75"/>
<polyline fill="none" stroke="rgb(0, 128, 0)" points="359.84,-18.14 355.12,-19.79 "/>
</g><g id="node4" class="node">
<title>bot1</title>
<ellipse fill="white" stroke="white" cx="361.8" cy="-39.8" rx="1.8" ry="1.8"/>
</g><g id="node9" class="node">
<title>w</title>
<ellipse fill="none" stroke="black" cx="27" cy="-39.8" rx="27" ry="18"/>
<text text-anchor="middle" x="27" y="-35.6" font-family="Times,serif" font-size="14.00">w</text>
</g><g id="edge1" class="edge">
<title>w-&gt;w1</title>
<path fill="none" stroke="orange" d="M54.4,-39.8C62.39,-39.8 71.31,-39.8 79.82,-39.8"/>
<polygon fill="orange" stroke="orange" points="79.92,-43.3 89.92,-39.8 79.92,-36.3 79.92,-43.3"/>
</g><!-- w&#45;&gt;bot1 -->
<!-- w&#45;&gt;bot1 -->

<g id="edge5" class="edge">
<title>w-&gt;bot5</title>
<path fill="none" stroke="green" d="M50.07,-30.12C61.9,-24.95 76.73,-18.5 90,-12.8 96.99,-9.8 105.07,-6.39 110.34,-4.18"/>
<polygon fill="green" stroke="green" points="112.15,2.01 116.02,-7.21 114.18,-7.99 110.31,1.23 112.15,2.01"/>
<polyline fill="none" stroke="green" points="115.01,-2.22 110.4,-4.15 "/>
</g>
</g>
</svg>