<svg width="696" height="712" viewBox="0 0 385.5 190.58" xmlns="http://www.w3.org/2000/svg" xmlns:xlink="http://www.w3.org/1999/xlink">
<g id="graph0" class="graph" transform="translate(4,186.5800018310547) scale(1)">
<title>G</title>
<polygon fill="white" stroke="transparent" points="-4,4 -4,-186.58 381.5,-186.58 381.5,4 -4,4"/>
<!-- 0 -->
<!-- w1&#45;&gt;w2 -->
<g id="edge2" class="edge">
<title>w1-&gt;w2</title>
<path fill="none" stroke="orange" d="M144.4,-39.8C152.39,-39.8 161.31,-39.8 169.82,-39.8"/>
<polygon fill="orange" stroke="orange" points="169.92,-43.3 179.92,-39.8 169.92,-36.3 169.92,-43.3"/>
</g>
<!-- w3 -->
<!-- w3 -->
<g id="node3" class="node">
<title>w3</title>
<ellipse fill="none" stroke="black" cx="297" cy="-39.8" rx="27" ry="18"/>
<text text-anchor="middle" x="297" y="-35.6" font-family="Times,serif" font-size="14.00">w</text>
</g>
<!-- w2&#45;&gt;w3 -->
<g id="edge10" class="edge">
<title>w1-&gt;fix</title>
<path fill="none" stroke="green" d="M134.91,-53.5C161.66,-74.19 216.23,-112.5 270,-126.8 298.42,-134.36 332.84,-126.77 352.32,-120.99"/>
<polygon fill="green" stroke="green" points="353.45,-124.31 361.91,-117.93 351.32,-117.64 353.45,-124.31"/>
</g>
<g id="node1" class="node">
<title>w1</title>
<ellipse fill="none" stroke="black" cx="117" cy="-39.8" rx="27" ry="18"/>
<text text-anchor="middle" x="117" y="-35.6" font-family="Times,serif" font-size="14.00">w</text>
</g>
<!-- f&#45;&gt;f -->
<g id="node2" class="node">
<title>w2</title>
<ellipse fill="none" stroke="black" cx="207" cy="-39.8" rx="27" ry="18"/>
<text text-anchor="middle" x="207" y="-35.6" font-family="Times,serif" font-size="14.00">w</text>
</g>

<!-- w2&#45;&gt;w3 -->
<g id="edge3" class="edge">
<title>w2-&gt;w3</title>
<path fill="none" stroke="orange" d="M234.4,-39.8C242.39,-39.8 251.31,-39.8 259.82,-39.8"/>
<polygon fill="orange" stroke="orange" points="259.92,-43.3 269.92,-39.8 259.92,-36.3 259.92,-43.3"/>
</g><g id="edge6" class="edge">
<title>w1-&gt;bot2</title>
<path fill="none" stroke="rgb(0, 0, 255)" d="M124.74,-57.4C134.28,-80.52 153.53,-121.4 180,-148.8 185.84,-154.85 194.43,-159.54 200.11,-162.24"/>
<polygon fill="blue" stroke="blue" points="205.99,-159.38 201.94,-168.52 200.11,-167.71 204.16,-158.57 205.99,-159.38"/>
<polyline fill="none" stroke="rgb(0, 0, 255)" points="204.88,-164.35 200.31,-162.33 "/>
</g>
<!-- w2&#45;&gt;f -->
<g id="edge11" class="edge">
<title>w2-&gt;fix</title>
<path fill="none" stroke="green" d="M229.54,-50.05C262.47,-65.71 324.47,-95.21 352.87,-108.72"/>
<polygon fill="green" stroke="green" points="351.44,-111.92 361.97,-113.05 354.45,-105.59 351.44,-111.92"/>
</g>
<!-- w3&#45;&gt;f -->
<g id="edge12" class="edge">
<title>w3-&gt;fix</title>
<path fill="none" stroke="green" d="M312.11,-55.18C325.18,-69.41 344.35,-90.3 356.43,-103.47"/>
<polygon fill="green" stroke="green" points="353.87,-105.86 363.21,-110.86 359.03,-101.12 353.87,-105.86"/>
</g>
<!-- w3&#45;&gt;f -->

<!-- w -->
<g id="node10" class="node">
<title>w</title>
<ellipse fill="none" stroke="black" cx="27" cy="-39.8" rx="27" ry="18"/>
<text text-anchor="middle" x="27" y="-35.6" font-family="Times,serif" font-size="14.00">w</text>
</g><g id="node4" class="node">
<title>fix</title>
<ellipse fill="none" stroke="rgb(0, 128, 0)" cx="368.75" cy="-115.8" rx="7" ry="7"/>
</g><g id="node6" class="node">
<title>bot1</title>
<ellipse fill="white" stroke="white" cx="117" cy="-1.8" rx="1.8" ry="1.8"/>
</g>
<!-- w&#45;&gt;w1 -->
<g id="edge1" class="edge">
<title>w-&gt;w1</title>
<path fill="none" stroke="orange" d="M54.4,-39.8C62.39,-39.8 71.31,-39.8 79.82,-39.8"/>
<polygon fill="orange" stroke="orange" points="79.92,-43.3 89.92,-39.8 79.92,-36.3 79.92,-43.3"/>
</g><!-- f&#45;&gt;f -->
<!-- f&#45;&gt;f -->
<g id="edge7" class="edge">
<title>w2-&gt;bot3</title>
<path fill="none" stroke="rgb(0, 0, 255)" d="M221.96,-55.05C234.02,-67.79 252.25,-86.02 270,-99.8 276.64,-104.96 285.03,-109.87 290.46,-112.85"/>
<polygon fill="blue" stroke="blue" points="296.44,-110.38 291.71,-119.2 289.95,-118.25 294.67,-109.44 296.44,-110.38"/>
<polyline fill="none" stroke="rgb(0, 0, 255)" points="294.96,-115.26 290.55,-112.9 "/>
</g>
<!-- w&#45;&gt;f -->
<g id="node7" class="node">
<title>bot2</title>
<ellipse fill="white" stroke="white" cx="207" cy="-164.8" rx="1.8" ry="1.8"/>
</g>
<!-- f&#45;&gt;f -->
<!-- w&#45;&gt;bot1 -->
<!-- w&#45;&gt;bot1 -->
<!-- w&#45;&gt;bot1 -->
<!-- w&#45;&gt;bot1 -->
<g id="edge5" class="edge">
<title>w-&gt;bot1</title>
<path fill="none" stroke="rgb(0, 0, 255)" d="M50.07,-30.12C61.9,-24.95 76.73,-18.5 90,-12.8 96.99,-9.8 105.07,-6.39 110.34,-4.18"/>
<polygon fill="blue" stroke="blue" points="112.15,2.01 116.02,-7.21 114.18,-7.99 110.31,1.23 112.15,2.01"/>
<polyline fill="none" stroke="rgb(0, 0, 255)" points="115.01,-2.22 110.4,-4.15 "/>
</g><g id="edge9" class="edge">
<title>w-&gt;fix</title>
<path fill="none" stroke="green" d="M39.49,-56.02C62.19,-86.5 116.16,-151.41 180,-175.8 244.32,-200.38 323.53,-149.25 354.48,-126.24"/>
<polygon fill="green" stroke="green" points="356.95,-128.76 362.75,-119.89 352.68,-123.2 356.95,-128.76"/>
</g><g id="node8" class="node">
<title>bot3</title>
<ellipse fill="white" stroke="white" cx="297" cy="-115.8" rx="1.8" ry="1.8"/>
</g><g id="node5" class="node">
<title>inv</title>
<text text-anchor="middle" x="368.75" y="-35.6" font-family="Times,serif" font-size="14.00">  ...</text>
</g>
<g id="node9" class="node">
<title>bot4</title>
<ellipse fill="white" stroke="white" cx="368.75" cy="-11.8" rx="1.8" ry="1.8"/>
</g><g id="edge4" class="edge">
<title>w3-&gt;inv</title>
<path fill="none" stroke="orange" d="M324.37,-39.8C332.97,-39.8 342.32,-39.8 350.12,-39.8"/>
<polygon fill="orange" stroke="orange" points="350.18,-43.3 360.18,-39.8 350.18,-36.3 350.18,-43.3"/>
</g>

<g id="edge8" class="edge">
<title>w3-&gt;bot4</title>
<path fill="none" stroke="rgb(0, 0, 255)" d="M320.45,-30.79C334.95,-24.97 352.74,-17.83 361.81,-14.18"/>
<polygon fill="blue" stroke="blue" points="363.76,-8.01 367.49,-17.29 365.63,-18.04 361.91,-8.76 363.76,-8.01"/>
<polyline fill="none" stroke="rgb(0, 0, 255)" points="366.55,-12.28 361.91,-14.14 "/>
</g>


<!-- w&#45;&gt;bot1 -->

<!-- w&#45;&gt;bot1 -->


</g>
</svg>